<svg xmlns="http://www.w3.org/2000/svg" xmlns:xlink="http://www.w3.org/1999/xlink" version="1.1" x="0px" y="0px" viewBox="0 0 96 120" enable-background="new 0 0 96 96" xml:space="preserve"><path d="M34.592,29H17.408L26,36.368L34.592,29z"/><path d="M58,41h24v20H58V41z"/><path d="M27.3,40.52C26.928,40.84,26.464,41,26,41s-0.928-0.16-1.3-0.48L14,31.352v17.652h24V31.352L27.3,40.52z"/><path d="M69,1H26c13.236,0,24,10.764,24,24v60h-4V25c0-11.028-8.972-20-20-20H12.76C6.28,9.304,2,16.656,2,25v68c0,1.1,0.896,2,2,2  s2-0.9,2-2v-8h40v8c0,1.1,0.896,2,2,2c1.104,0,2-0.9,2-2v-8h40v8c0,1.1,0.9,2,2,2s2-0.9,2-2V25C94,11.992,82.557,1,69,1z M42,51  c0,1.1-0.896,2-2,2H12c-1.104,0-2-0.9-2-2V27c0-0.096,0.044-0.18,0.056-0.276c0.02-0.14,0.036-0.276,0.084-0.412  c0.052-0.14,0.132-0.256,0.212-0.384c0.052-0.076,0.072-0.16,0.132-0.232c0.016-0.02,0.04-0.024,0.056-0.044  c0.1-0.112,0.232-0.192,0.356-0.28c0.092-0.064,0.172-0.136,0.272-0.18c0.112-0.052,0.24-0.068,0.356-0.096  c0.132-0.036,0.26-0.076,0.4-0.084c0.028,0,0.052-0.016,0.08-0.016h28c0.028,0,0.052,0.012,0.08,0.016  c0.14,0.004,0.268,0.048,0.408,0.084c0.116,0.032,0.24,0.044,0.348,0.096c0.1,0.044,0.18,0.12,0.276,0.184  c0.124,0.084,0.252,0.164,0.352,0.276c0.016,0.016,0.04,0.024,0.056,0.044c0.06,0.072,0.08,0.156,0.132,0.232  c0.08,0.124,0.16,0.244,0.212,0.384c0.048,0.136,0.064,0.272,0.084,0.412c0.012,0.092,0.056,0.176,0.056,0.276v24H42z M58,25h24  c1.1,0,2,0.896,2,2s-0.9,2-2,2H58c-1.1,0-2-0.896-2-2S56.9,25,58,25z M86,63c0,1.1-0.9,2-2,2H56c-1.1,0-2-0.9-2-2V39  c0-1.104,0.9-2,2-2h28c1.1,0,2,0.896,2,2V63z"/><text x="0" y="111" fill="#000000" font-size="5px" font-weight="bold" font-family="'Helvetica Neue', Helvetica, Arial-Unicode, Arial, Sans-serif">Created by iconsmind.com</text><text x="0" y="116" fill="#000000" font-size="5px" font-weight="bold" font-family="'Helvetica Neue', Helvetica, Arial-Unicode, Arial, Sans-serif">from the Noun Project</text></svg>